<mxfile host="Electron" modified="2024-05-02T08:31:56.996Z" agent="Mozilla/5.0 (Windows NT 10.0; Win64; x64) AppleWebKit/537.36 (KHTML, like Gecko) draw.io/24.2.5 Chrome/120.0.6099.109 Electron/28.1.0 Safari/537.36" etag="T3HBejKqB5teCWOPAGnv" version="24.2.5" type="device">
  <diagram name="Pagina-1" id="q5kvE5bMEbmpqlwPFiQm">
    <mxGraphModel dx="1434" dy="844" grid="1" gridSize="10" guides="1" tooltips="1" connect="1" arrows="1" fold="1" page="1" pageScale="1" pageWidth="827" pageHeight="1169" math="0" shadow="0">
      <root>
        <mxCell id="0" />
        <mxCell id="1" parent="0" />
        <mxCell id="klAf62AJUxECMU4ouiQL-1" value="" style="shape=image;verticalLabelPosition=bottom;labelBackgroundColor=default;verticalAlign=top;aspect=fixed;imageAspect=0;image=data:image/png,iVBORw0KGgoAAAANSUhEUgAAAp0AAAJKCAYAAABu7v6pAAAAAXNSR0IArs4c6QAAAARnQU1BAACxjwv8YQUAAAAJcEhZcwAADsMAAA7DAcdvqGQAAGGHSURBVHhe7d15lFx3fef9b+1VXb1Uq9UtqVu7hISMZMu2jI0xNiOzODAywcQJZ/JAbCYnGROYQzKZYQ6ZMYHneTiH5/mHOfjg5y/jwZMZJh5IiAIYCBoQjsGWjS0kJMuW3dbSWlrqvaqXWp/f795fLV1dvdftrrr1fpGb+t1b1beqrly3PvXbrufgHQdyAgAAADjIa24BAAAAxxA6AQAA4DhCJwAAABxH6AQAAIDjCJ0AAABwHKETAAAAjiN0AgAAwHGETgAAADiO0AkAAADHEToBAADgOEInAAAAHEfoBAAAgOMInQAAAHAcoRMAAACOI3QCAADAcYROAAAAOM5z8I4DOVMGgIbi9fkkEAyJPxAQv89vrevFY+7XJ8dsJmMt6Uxa0qmUpJJT1joAYHEInQAaQiAQlEi0WcJNTRKKNEk4HBafP2DuXZxMOiWTk5MyNTEuk+PjMpGISyqVNPcCACohdAJwrWhzqzS3tkm0pVWCKmQ6KalCaGJsVOKjI5KIj5qtAIA8QicAV4k0RaW1fY20xtqXXJO5XLomdHR4SEaHBmViPGG2AkBjI3QCcIW29g6Jday1mtBriW56Hx64LiNDA2YLADQmQieAuta+tkvWdHZZA4JqmR6ANHitX4au95stANBYCJ0A6pKu2exYt0GCodoOm+WSU1MycPUyNZ8AGg6hE0Bd0X02127okWhzi9lSnxLxMbl+uY8+nwAaBpPDA6gbnet7ZMvb3l73gVPT70G/F/2eAKAREDoB1LxwpMkKaB3r1pst7qHfk35v+j0CgJsROgHUtNiatbJ11x6rWd2t9HvT71G/VwBwK0IngJrV1b1R1m/aYtbcT79X/Z4BwI0InQBqUs/W7bKmc51Zaxz6Pev3DgBuQ+gEUFO8Xp9s2rFLWtrazZbGo9+7Pgb6WACAWxA6AdQMr08Fzu07XTE6fbn0MdDHQh8TAHADQieAmuDxeGXTtp01dxnL1aSPhT4m+tgAQL3jTAagJuh+jATOmfQxoY8nADcgdAJYdRs2bZHm1jazhnL62OhjBAD1jNAJYFXp66e3MT/lvPQx0scKAOoVoRPAqmlujUnn+m6zhvnoY6WPGQDUI8/BOw7kTBkAVozf75etu24QfyBgtqyMTCYj2WxWsrmc5Aq3alH/s/9v+inRo/5n/5/6n9cjXo++9Vq3XnXrW+HR5elUSt567ZSk02mzBQDqA6ETwKro3rJdWmPOzMWpQ2VahUsdzOwlI5msCpuZrH1bzdDp9YnXZ9/6/Xrx24sKo/p+J4wOD8mlc2+aNQCoD4ROACuurb1DNmzeataqI5lMysTkpKR0yEyl7dv8ogKoruHM5bLm0dWlpzTSNZ46aOZDZ0AvgYCEQkEJBYNWuZoun39LRoYGzBoA1D5CJ4AVpa+ys2PPO8Tnr04I00FzdHRM4omEpFIpyapgqQNmLfD5/FbgDKvgGYlEpDkalaBar4ZMOiVvnP6tZLO18V4BYD4MJAKwovRgmGoFzoQKmn19l+XipUty7fqAFUBrJXBqmUxaxifGZXB4WK72X5Or165Zr7Ea9DFkEBaAekLoBLBiQuGItHd2mbXluzYwKNcHByWVsgfVeDzWTU1KqwA6PDJiLdWij6U+pgBQDwidAFZMR9d6U6qOqakpU7JlnemyWVW672k1VfuYAoBTCJ0AVkQ40iSt7WvMWnX4/OXTFdV+F3Xdp7Wa9DHVxxYAah2hE8CKaF9bvWb1PL/Pb0q2XK72Q6cT83o6cWwBoNoInQAcFwgEpW1Nh1mrnkAd1nQ6ETr1sdXHGABqGaETgOOcCJyanpKoVB1UdFpzeTrBqWMMANVC6ATgOOdC5/QA16jN6xqhE0CtI3QCcFS0uVUCwZBZqy5/oP76dDpV06mPsT7WAFCrCJ0AHNUSi5lS9QXKmtfrgc/n3GnXyWMNAMtF6ATgqOZW54JQ+ZRJjdy8rjl5rAFguQidABwTaYqKP1CdS15WUt5UXQ8DiZwMnfpY62MOALWI0AnAMU0tzvYx1AGu/NKXtR08PY6GTs3pYw4AS0XoBOCYpmizKTnD6/XOuMJPLTexO9mfM8/pYw4AS0XoBOCYlWjq9ddRv05flS+BWQnN6wBqFaETgCOCobB4HW5K1spDp4qd5rb2ON20ruljro89ANQaQicAR4TCEVNy1szrr5tCDVqJ0Kmt1LEHgMUgdAJwRCi8MrVt5UGutvt0rlTopKYTQO0hdAJwhFNXISoX8JdPEE/oXKljDwCLQegE4Ah/MGhKzvKVhU6a11fu2APAYhA6ATgi4HduUvhS/hmhk5rOlTr2ALAYhE4Ajii/RKVT6umqRH7vypxyV+rYA8BiEDoBOMKzAnNSakyZNNNKHXsAWAxCJwBH6KsFrYTyINfoVyTSVurYA8BicGYCUNfK+3RS0wkAtYnQCaCulU+ZlM2aQg0idAJoZIROAI7IrlD6qxTkarWFfaVC50odewBYDEInAEfkshlTcpYOcl6vx6zZarFfp8fjWbG+lit17AFgMQidAByRSa9c8JlZg1h7oXMlm9ZX8tgDwEIROgE4IpVOmZLzupuTEvEXn6/WKjpDvoysi67c8VjJYw8AC0XoBOCIdDJpSs7b1Z6QG9cMyO7YkHQ3xaU5kFQnt9VLnvq5oyoEd0UmZEfbiLxjzaBsj42be523ksceABbKc/COAzXa5R5APVu7boOsXd9t1pzVHf+ZNKUuSTLrldFkUCa8LTIlEZnI+GQqrRZ1q+9LZ7ySzHklk/VIRt0uh8+TFb83JwF968tK0Ju1ajT1EvZnpEmFzmggLS2BlITUety7Xi76bjN/7azrVy7J9auXzRoA1AZCJwBHtLS1S8/W7WbNWesTz0lz8i2zJuINhcTrD6qgqQOn1w6dakmpsJlS23ToTOdU8FRBNCseyaqzYFat62b5nFovpbaKR23yenJqsWsxfSpg+tW6vg2oJajDpwmcISuAZvQfTjPi3SSXffvNmrP63npTxkaGzBoA1AZCJwBHBENh2f72d5g1Z3VOvCRtk2fMmgqGQRU6g0GzNgt15tO1nRkdNFXg1OHTCp06fJqH6NzoUeHSCp1qaz546lrO8lA5n0Hvdun3rczxePPV30pyatKsAUBtoE8nAEfo0JPNrMwo6qxnesBc0JRJOjzqWkpf1mr+jvjT0hRISzSYkmaz6LLepu/Tjwmox+q/WWzg1NRfm5Kz9DEncAKoRYROAI6ZGE+YkrMyZaHTqsasMeXB2CkrdcwBYLEInQAcM56Im5KzZoRO3UmzxqxUTedKHXMAWCxCJwDHjI+NmpIz9OUeJycnZWyivBm/9kJnYjIryWRSvWZnX5vTxxwAlorQCcAxuqk3naruROXJZEpGR8ek/9o1uXjpsrW8dTUuk5mSK/7U2OzwE2mfXBwYl6vqNevXPTg0JIlEQlLptHlEdehjTfM6gFrl27ax+69NGQCqLhgKSbgpataWRtdoxlVIGxoalgEV2HRoGxwekuGRURmfmJDxZEbSWY/41M/okC8t+hLn3sDK9KGcSyrjlWsTYekdbZVLowGZnJqyXu/E5IRVnpqckpQJ5X6/37o++3KMDg9KfHTErAFAbWHKJACOija3yqYdbzNrizc6FpfR0VEZi8clMT4u6VmuK+71ZKUzPCWdkSmJRVLSEvVL1K9HnmfsEecrQM/7qWs1E2m/JFIBa6L6wYmQDE6FZ23w19dkj4Qj0tQUkZbmZmmKRMw9i3fhjdclEad5HUBtInQCcNyOPXslEAyZtYXRtZvXBgZkcHDICpxz9YX0ej1q8RZuo4GMRINZdZuSiC9tTdgeVgFUT+Lu99pTH+Und/fpW2v+TTMtfHllo3pa/cx68vhMftFXN1K3uiYzndVXO/LIpAqaeiL6iYwdOBMpv0yq8kLpWs5oU1TaWlskFoup17O4Ws9UckreOH3SrAFA7SF0AnDcUi6Jee36dbnQd8nqwzkbnct0TaFedOD0eLzWtnJ6Mvewzw6b9hWE9CUs7cDpVUHUJ1l1q/OmHTzz+7CvUKQXjwq9egS6V93awTOtgqe+tGZKLyps6j6ly720phbwB2Tdui5pb2szWxaGS18CqHWETgCOCwSCsuOGfWZtYX5z8pTV/3E2OmTqfpD5wFlN+WsSmbrPFRcOheVtOxZ3CdE3Tp2QVCpp1gCg9jB6HYDjdBgaGRwwawuTnudqRjpw6qXagVPTYXO1AqeW0dWqi6CPLYETQK0jdAJYEUPX+01pYdZ1dYrPVzn45Ws5F9ntsS7oPqkd7TGztjCLPbYAsBoInQBWxOTEuIwODZq1+XV1rpX169ZJOLy4AUj1LBgMydqODlnT3m62zE8fU31sAaDWEToBrJiB/iumNL+A3y/d69fLxp5u6VzbIREVPvM1m3okezqdqrU54JfIIyEVNttjMVnX2SmdKnTqfqoLtZhjCgCricnhAayYTDqtApVfItGFTRavm5r1vJXRaJOEVOgMq3BmB7KcuZpPTgVRPWq93trZPRIMBK25Odta9BRJbdZo9WhT06Ley9C1fhkZWlxfWQBYLYxeB7CivF6f7NjzDvH5A2bLwmUyGZmYmCxc0Udfy1xPFq+3Z7IZq+azFvOnDpJ6KiR/wK/CZkCCwaC1hNUSCoWscL1YmXRK3jj9W8mq9w0A9YDQCWDFtbV3yIbNW83a0ujJ43XonFJLKpW2QqcVPtVSGkTtbXo0uNOnOo/4fF6rJtangrW+9fvtW91VwK/Cpr7VoTOgluXWzl4+/xa1nADqCqETwKro3rJdWmMLHzCzEIXQaZasWddTEGVV8Mzm1KLLuZzk1G1O3xYWHUvN6TB/VjS50KP/p8r5pnxr8XqtqwZZV0LyqEUHTlXWIdOrA6dZrBCqlmoaHR6SS+feNGsAUB8InQBWhZ7yaOuuG6wawJWgg6UVOMtCpy7rxGndmLRZljkLoVP/Px00Z4ROtSy35nKh0qmUvPXaKUlbfVoBoH4QOgGsmubWmGzctsOsYSEu9r4h8dFhswYA9YMpkwCsGh2erl25ZNYwH32sCJwA6hWhE8CqGrh6WUYGr5s1zEYfI32sAKBeEToBrLrLF85JfHTErKGcPjb6GAFAPSN0AqgJfW+9KROJuFlDnj4m+tgAQL0jdAKoCblcVi70niV4ltDHQh8TfWwAoN4ROgHUDD2v5oU3z0oiPma2NC59DPSx0McEANyA0AmgpujLOl544zUZGxkyWxqPfu/6GHCJSwBuQugEUJN0P8bBa1fNWuPQ75k+nADciNAJoGb1X7ooVxpo1LZ+r/o9A4AbEToB1LThwevy1munZWI8Yba4j35v+j3q9woAbkXoBFDzJifG5dzrr8rA1Stmi3vo96Tfm36PAOBmhE4AdePalT4roLlhdLt+D/q96PcEAI3Ac/COAzlTBoC60dbeIR3rNkgwFDJb6kNyasq+9OfQgNkCAI2B0AmgrrWv7ZI1nV0SCNZ2+Ewlp2TwWr8MXe83WwCgsRA6AbiCrvmMdayVSLTZbKkN+qpCwwPXqdkE0PAInQBcJdIUldb2NdIaaxefP2C2rqxMOiWjw0MyOjTo6lH3ALAYhE4ArhVtbpXm1jaJtrRKMBw2W52RnJyUxNioxEdHJBEfNVsBAHmETgANIRAIWk3v4aYmCUWaJKxC6FJrQnVN5qQKmVMT4zI5Pm41oadSSXMvAKASQieAhuX1+awBSP5AQPw+v7WuF4+5X58cs5mMtaQzaUmnUtaAIL0OAFgcQicAAAAcx+TwAAAAcByhEwAAAI4jdAIAAMBxhE4AAAA4jtAJAAAAxxE6AQAA4DhCJwAAABxH6AQAAIDjCJ0AAABwHKETAAAAjuMymAActeG298vNu9dLNKBWskkZ7X1Fnj16RhL23VXSLDvvPih7t7VJQP+UTsWl/8wL8vNjffbdtWLTrXLPHbulq9lnraaGeuXkkWfl7Ki1CgCuRugEMM2BBz4hKrstS+ryS/L3z5wS6b5LPvTBbRI1220ZGfj1f5cjx82q9o73y+++c73oXLpgySty/G9+Iq/p8k33ycdu6SxruonL+R/9nTx/yayuuvVy+8feL5tbzaqRvfqKfOcHJ8waALgXzesAnNMekaApFvkk2rXTlKukJVjhZNYssS2mWBPWSDhsiiW8rZ2yzZQBwM0InQCcMzQhSVMsykii/6wpV8lYUrKmWBSX4XOmWBMGZXLSFEtkR69JrykDgJsROgFUVzYul397yi5felae+3WfJFL2qtWn842X5PnSpvVqOP6sHHt1UFL55Kn7dJ58oYaa1rUr8vzPX5Er8YxZt/t0Hn+WpnUAjYE+nQCmiW3aJq0z28RniG7bL3s3NZu1vIyMvv5z+dGzixzAU7FPZ1z6jr4iF83aDJkJGXjrSpUHJAEAnELoBLB4m94lH/wXO6XVHoRdkB05K89995dy2awvWMXQOSK93/wHedGsAQDqG83rABapR+68Y2bglMyInPvVEgInAKAhUNMJYBGaZdd9H5abNpS3v2dk4Pg/yJFfx8163rvkgw+rgGrWbBVqMJdb01np70unVKog9rb9csPbNktHe7OEgyUJOpuRbHJChq72Su9vXpHe62Z7mV33/cGM42BPFXVFdt59l+zd2iYBa7fF91FpOqrR15+SHz1rVpTZ93tKottvlVv275QuPVrfVBno1zp64YQcO3pGhu1Ns2iWrr37ZM+29dLeFpGA/eJsmYykJuMy1HdWTp84Jf3MGwrAAdR0Aliw6N53yQ0zAqcORa/I8zMCZ41q3S23/+4fyPvv2ic969qmB07N6xNvuFk6tuyTAx/+A/ng3bvL5hmd26773i8378gHzurZcMeH5f333CDr24qBU/MGIxLb8U6593ffJRvMthn0pPQP3i/33KYC69rm6YFT8/kkEG2Trl3qcb/7UfW4HnMHAFQPoRPAwrTul9v3V5jAffKKnHruVH0M6Gm9Qe758Dtlc/sCRkpp3qC0qkB38IM3LCx4RnfLvgqhfNmiO+X2PWtmHvsS3vZtsved5QO7FKv/7Q2FqyDNy6drRO+RD95F8ARQXYROAAvQIwfed4N0zEg9Sek/8Ut5zZHm2DbZ9vAn5MGKyx/IPe8wD1uw9XLg4H7pqjBBu9WknrKXSsLdKnDfUiHQlQm0NjtyUg20ttmBM/86Z05KqvgktnFfWThWIfuuCv1vtfy+Kr5ln7S+7Z1y5yazCgBVQOgEMK8Nd90qW9pmJpfUpRPy85N10qx+037Z0l7+HjIyeVG9h7/77/Kd/2YvP/jhCbmSKE9iPunYeatsNmtzykxI/+lfyk+++ZQ8/c3vy7MvnZEBc9dypPpPyfP51/l3z8r5kQppsWWNlF7rqeue3RVCdlKGX1Ov77+afX3rKfnJs2dleMYs/s2yYf+tpgwAy0foBDC3TffIzW9rm3myiJ+X539kJoGvA3s3rpn5HgbPypGfvDJt4Eziyivyi2fPz+wuEO2ULTtMeVZJ6f/1M/LzX6kQZ60PyuXfnFn+FYdS1+TM91+S8/nXOdorz5+4IjMucOT1lTTBr5edXTNrZycvviQ/+ef867MNv65C6MlrM67q5F2zXm4yZQBYLkIngDno5tnNM/szZuNy/lc/r6PpkbZJe8vMWs6BCy9U7ot66RUZmNFlICJN601xNvErctqBmt/U9fNy2pQLXh+RyYrN7Hk9Em0yxYK4DPx2lkuQHj8v18trO73NEttjygCwTIROALPQ0yPtq9A8m5HRN16Q5y+YVcfoqYZ0E3Wl5X/Kz39rHrYgEV0JWGZCj4GaRVyGEjOvGi8eczuL1Ng16Tdl501IMm2KFU0f5W5JTcjorJcGPV/x2vB8SwCoFk4nACqK3nJXxZHY2ZFe+c1iL3NZh4K+SqNv3KxZfHwjAHAQpxgAM3W/S+7a2znzBJEZlLP/VI9XHZqoMEo7IuFZm8vXS2vTzOb41Lgp1oXkzFHugYi0dpvyDOslHDLFgqSkhkwRAJaJ0AmgTI8cuGNbhWl2MjJw8udyvC6vVtMrQ2MzR6S3b9hfef7NTbslNmMMTlxGZ+kOWZv6JDEjJDdLbHfl+Tejt6yX9vIpsZJxuT5rczwALA6XwXQBr88vvkDAuvV4vJJT/wOWqmXLHtm8ZmazeiZ+Sd58/ZpU6Ok4h02y8+Y1Mr0CbVKGXj4j07JM1w55e0+zioGlKjxuNpX+PhOXq795QwpXsVz/NrlhQ1NZt8yspEYuy/k3rxdGggfbu6VnY6c0+c2GvMlBeev0hcLAo7Vv2yvryiZc18foVXWMZtO95yZpL+sjOzVwXM6eNyvKwvfbKVtv7JbotIdOP2bRrXtk64yJ8DMy3t8nfX1DhX/LcOdW2dzdJoGyaoj53g8wH4/6Xy6XlWwmLZlUyrpF4yJ01ikdMANNUQmGm8TrL/92BACg9mTTaUlOjktqPEEAbUA0r9cZHTYjsTXS0rVBws2tBE4AQN3Q31n6u0t/h+nvMv2dhsZB6KwjwaaoNHeul2BkQVeBBgCgZunvMus7TX23oTEQOutEuDUmkbY14vHMM1EgAAB1Qn+n6e82/R0H9yN01gH9YQxFW8waAADuor/jCJ7uR+isceHmNgInAMD1rOCpvvPgXoTOGuYPhiXU0mrWAABwN/2dp7/74E6EzhoWbuUXHwCgsfDd516EzhqlR/P5AjMn6AYAwM30dx8j2t2J0Fmjgk0zrsEHAEBD4DvQnQidNUj/yqOWEwDQqPgedCdCZw0KhCKmBABAY+K70H0InTXIF+TXHQCgsfFd6D6Ezhrk8wdMCQCAxsR3ofsQOmuRl38WAECD47vQdfgXrUFcXx0A0Oj4LnQfQicAAAAcR+gEAACA4zwH7ziQM2XUiLYNm0wJAIDV0ZLNyjuSSWvZlMlITK1rI16vXPD75bRaToRCMupg38uRyxdMCW5A6KxBhE4AwGrRPSnvmJyUPx4bk1guZ61XosPDqMcjTzU3y/+ORKz1aiN0ugvN6wAAwBJWIfPPR0bkL9XSPkfg1PR9beoxf6bC6X8YHpZmUxMKzIbQCQAAJKQC5P81OCh3TU0tauS4fuTtyaT83+pvmwiemAOhEwAAyMfjcdmaydgrup/moUMqUc4TPj/wAfuxykYVOB8eG5uzdhSNjdAJZx36vDz53SflabV87TNmW72o59cOAItw49SU3D8xYYcCv1/kX/0rkf/wH0T+6q9EfD7rMdPooPm5z4n85/8s8qd/KhIKWWHzoNqP7g8KVMJAohpUjYFEh778Dfnk3iazVm5cTn7z0/Klw2bVQY98/Uk52GNWEqflW5/4qizmae33IQ6/3k/J1757t/T0HZUHP/uE2bb81w4A9UL34bxTBUYt3dEhuaefloC+9rluLj9+XOSzn7XuK9BhVNdyqkCaTqcl9/DDEujtte56ORCQ/7O93SovFwOJ3IWazobUJHsfflKe/PJ9Zt05j//4tCRMue/5xYU2HfpmD85VYtVmqsBpVkst57UDQL3w5XKyN5k0ayL+gQHJ/Zt/I6krV+wazZtvFvlP/8ncq/zFX4j8zu/YgfPaNcn8+Z8XAqf29lRKImqfQDlCZwNInPy2PPjAQ9byrZPjZqtIdO/d8ogpO+bwV+Uh89yfe8xsqxf1/NoBYIF2qZDYUhYSg6+9Jrl/9+8kNTJib7jvPpH/8l9EvvxlkY9+1NqUjscl8+ijEnr5ZWs9L6yWfabWFChF83oNqnbzug6dDz36jFW2avYe3iNRa2VmM/u0JmWtrMk5r7z5PnHyqPRuu1v2Wju+JEce+II8rkqzvg65T7741MfN44v6jqiAJ1+Rpw92my3TWfc/ZprDrS36uY5Kl9mXff/M12eZ1kRe+fkt5nEy62sHAPe4d2LCmvaokvSuXeJ57DHxNZnzqQ6nHo9kJicl8+//vQTLAmfeU9Go/J1alovmdXehprOhDUt/IXDqIFcWOLWeu+Xppz4vh8yqVqnZW9eaVgxwFennmiXwLcHur5ftSwXrj5UHTi26Rz5Z9l4AoNEF5mgK9+kazz/6I8mm0/YGFTiz2ayk/+IvJDBL4NT0fJ9AOUJnQ7lPvvj7+VpOu3ZS10Zqj3y92K9R1xZazfFHLtkbVFj7WL7/52e+UhJMdS3jzGb7+Rz68oHCc5U2/Ree77EvWOtH+uxVu0bWfszMZu5u6SkPypquoc3vt3Rf6r3ca41Ef0a+9Al13zeL/TYLf8OAIQANZK54qOfr9H3uc+IpGcGutwX/+I/FM8flL7OETlRA6GwA0b0ft6b9ebqkdrG8yf32QuI8Wgx2j52VQlZrt5u7H9ldbPbuO2I3oWuHH32x8NjFiG67qVjzqMLmkvpOlgRM6+91X8yyLgGPnzGBVol1OT+ACgDqReGHdzk9R+e//bfiede7rKCZHh2V1PCwVfbowUV/+ZeVp1NSRs0tUIrQ2YhUSJvWP3FLW6H202pON3NTPl06qjvWqcLhfdIVM+syLkPnTNFySYZmPXNNd/jYueJJTjd5m+db2lyY43LyxzP7nOouAMX3oZZZ+ogCQKM75ffPrJnUtZh//uciv/d7VtkaNKRCph7VntSDi3Qg1ZPHf+ELM4JnTu3rdCBg1oAiQmcDyDdhF5qYdbD8+qfMyiqwRoUfnVEz2nNwKdM4lfZLtc0YDAUAmNVQMChvlTSV53T5858Xuf9+K1ymk0nJqfXQqVMSvHhRvH/xF5IcH7eD5/veJ/Loo5IrCZlX1XI+FLJXgBKEzgby+GdLgp4KnoWaxXMjM/s1li9WP8dnpH/YPE6apH2LKVq6pX1RA4OekM+ZfU+bxqm0uX1JPiW7S7oKFF5/vr8oAGAaXcf565LQmI3FJHnnndaViVIDA5L99KcloCeIN/xnzojnT/5EUldVvPT5JHXbbZIp6Vz/otpXVgdSoAyhs6GooFcSvnoOfsWep/PwcenNp87SMGo88nXzOOXiUDEg9txeHAleOhBpPno6o9LnmNbcXlGTbLttgTWghzql0AOg4D754u0LaF7v2en8vKUAUIO+39wsCTO3pndwULx/+qcyoUJl7q/+SoKvvmptLxV46y2R//gfZby/X+TP/kx8el2ZUvs4rPYFVELobDSPfaFkVHi3HLSa2Z+RL/1tcRS3buYu7Q9Z2lQ9bcBQSX/MxTZnT3uOwryhMu3KP6WDf/KDoebt91kWoO3nmGN6ptLH6+OhH8+0SgAazIjfL/9ve7uMZ7PWNdR9ly5J8F//awmePGk/oILA669L6I/+SPy9vdbfTKi//VosJtf05TOBCgidDai8md3qRzlLP0utdGolu1n823JyWtWkntKofNti2dMiTRu9rgLyYqZisumpkMreh25mn7V5vcLjAaABnWhulr/x+WQqHzyHC/2pZuUbG7Meq//m7zweeaGlxb4DqIArEtWgalyRaMWVXulo2pV/AAD1QgfIW0dH5TODg9ISiVjTI81Fj1RPTEzI/9feLr9sa5tzzs+l4IpE7kJNJxZJX02o2MfTprbN0kQOAKgfOjS+2Noqf7ZpkxzOZuV8Oi2pVEqymYwVMPWiy3rbRXXfD9VjPtPTI885EDjhPtR01qDaruksve75TFyjHADcQddxhlTAXKMC5q5EQtrNpTB1/8/Xm5rkejAokz6fo2GTmk53IXTWoNoOnffJF5+qNDBHXxKzeIUiAACWi9DpLoTOGlSXfToBAKgyQqe70KcTAAAAjiN0AgAAwHGETgAAADiO0AkAAADHEToBAADgOEInAAAAHEfoBAAAgOMInQAAAHAcoRMAAACOI3QCAADAcYROAAAAOI7QCQAAAMcROgEAAOA4QicAAAAcR+gEAACA4widAAAAcByhEwAAAI4jdAIAAMBxhE4AAAA4jtAJAAAAxxE6AQAA4DhCJwAAABxH6AQAAIDjCJ0AAABwHKETAAAAjiN0AgAAwHGETgAAADiO0AkAAADHEToBAADgOEInAAAAHEfoBAAAgOMInQAAAHAcoRMAAACOI3QCAADAcYROAAAAOI7QCQAAAMcROgEAAOA4QieAFXCffPGpJ+Xp7z4pT375PrNt6Q59+RvWvp5+6vNyyGwDANQ2QifgQo983Q54NRPKDt0k26J2MdrebReW7D65ZVuTXYy2yUa7VKYYcp/++qfMtrxPydf09ioFYADAwhA6ATjv8HHpTdjFxNAlu7Bkz8ive8ftYmJELtolAECNI3QCWAHPyJc+8ZA8+MBD8tCjz5htS3f40U9b+3rwE1+Vw2YbAKC2eQ7ecSBnyqgRbRs2mRKwNLp5/WCPKiROy7esYKablO8Wa9PJb8t35H755F7TRF14jE33lyzcZxmXk9/8tHzJPKCwb0PvLx8ki397SY4cETl4sNvs/5rcW/L89uN1E/jHZa9pdrdMey0V7u87Kg9+9okK769cyd+avymafixmvva8hb/v0tdzpHeLHNT70c/740558uE9Yr2MIw/Jmd0l+yh9XYc+X3hckTqGD3xBHrfKc/z7lR+Tkm2l5nr9QK0auXzBlOAG1HQCjWZbSWDRonvkY6Zv48zgVcruJ1kaXLTo3o9X6BvZbQfOWVUIlNPokDXX/dVVtfetjqUVOCuI3f6N6fvouVu+9hlT3tJWFjg1dQy/+xV5xKwVlP/7qf08+dQc+17UvxsAOIfQCTSYaHRYjuim6QeOSl9+27abrAFHG9tNmNE1iNZj9GJq+z5ztwmBugbQ3HfE7p+Z//tSuiZt9ibwbmk3KavwuJLHPvJ1u1Zv2nM98G05OWRtrLpqvm9do2k9pqymMSrn7H1/87SY7q3Ss9sMcnrsC+Y5zVJ4TLfsLoRHW6X9FP5NS7bFukygXOTrBwCnEDqBBpM4edQ02T4hZ/Kp03j8jBnkE90jn7RGeH9DvmhSyaGumF2QJtn7sBkZnq/NnDGKfFx6j83VdFt8bl3jNn2k/X1SeKq+FwvN21a/0EenB7lqqd77viRnHjPFMn3Pm/BdMqiqqDii3lpmNLUXJXqPm/1ck2FrS8m/acm2vMW9fgBwDqETQJGucSupLcsHFd0MW6gNrCgmXdOqzIalvxAWK3v8sw/Jt06aUeiaFfh02CvWgi7dM9KfT1+xzum1eYc61au1DfebYFyt972k0fS6+busZnfaa1mexf27AYBzCJ0Apjv8VXnIaub9tpw0yUfPrXlxKB8QS5u880txwM1iFEahF0JWk7RvKamB7TlQqHG0wtmXy+fcnF3h9aowe29JE/UjH8jXIpbVSq7g+54uH7L1/s3+KvbxXBrnXz8ALAyhE0CBHuFcaOItGcjTd+YJFRBfNH1AS5ppzVIctLJQszUn20Hw8R8XQ2jxudTrabc2Lkjx9arserD4XPkBNcVuBiv5vudSsv85B2Etzsq9fgCYG6ETwJz0wJjPWTWCT8jnSmoBq69kiiCr1rE40ClvcRPL69f7kBwp34mi39N80wWt3PtW+5/WnK6OQxWb151//QCwMMzTWYOYpxMAAObpdBtqOgEAAOA4QicAAAAcR+gEAACA4widAAAAcByhEwAAAI4jdAIAAMBxhE4AAAA4jtAJAAAAxxE6AQAA4DhCJwAAABzHZTBrEJfBRLVFo1FZ39Vl3Xo9HrMVwGrL5nKSSCTkSn+/dYvpuAymuxA6axChE9XSHovJ/n37ZMvmzWYLgFp17vx5eeXECRkaHjZbQOh0F5rXAZfasW2bfOTDHyZwAnVCf1b1Z1Z/dgE3InQCLrSpp0fec+edZg1APdGfXf0ZBtyG0Am40DsPHDAlAPWIzzDciNAJuMyeXbukpbnZrAGoR/ozrD/LgJsQOgGX2byJgWiAG/BZhtsQOgGX6VizxpQA1DM+y3AbQifgMsFg0JQA1DM+y3AbQicAAAAcR+gEAACA4widAAAAcByhEwAAAI4jdAIAAMBxhE4AAAA4jtAJAAAAxxE6AQAA4DhCJwAAABxH6AQAAIDjCJ0AAABwHKETAAAAjiN0AgAAwHGETgAAADiO0AkAAADHEToBAADgOEInAAAAHEfoBAAAgOMInYDLJJNJUwJQz/gsw20InYDLDAwOmhKAesZnGW5D6ARc5vyFC6YEoJ7xWYbbEDoBlzn92msyFo+bNQD1SH+G9WcZcBNCJ+BCL7z4oikBqEd8huFGhE7AhS709ckvnnvOrAGoJ/qzqz/DgNv4tm3s/mtTRo0It7SZErB0Q8PDcu7CBYmEwxJr478poNadO39efv7ss3LpyhWzBVPxUVOCG3gO3nEgZ8qoEW0bNpkSUB3RaFTWd3VZt16Px2wFsNqyuZwkEgm50t9v3WK6kcsMpnITQmcNInQCAEDodBv6dAIAAMBxhE4AAAA4jtAJAAAAxxE6AQAA4DhCJwAAABxH6AQAAIDjCJ0AAABwHKETAAAAjiN0AgAAwHGETgAAADiO0AkAAADHETqxqjwez7TF6/VaS/l2AABQ3zwH7ziQM2XUiLYNm0ypPumQ6PP5SgKkvtXhsRgo9bp5tLmdj/2faTabk1wup26z6jZr1vWtvWQyGet+AED9G7l8wZTgBoTOGlTLobNY86hvRYVLv/j9fitklgbN1VQaQPWSTqfVbVqFUX2vHVoJpgBQ+wid7kLorEG1Fzo9Klj6JBAImHDpL4TLemn6zteO2mFUh9BiINXbAAC1h9DpLvTpxKzs5nC/CptBaWlplWi0WcLhSCF81kvg1PRr1a9Zv3b9HvR7aWlpkba2mPXe9HsEAADOIXRihnzY9HrtJvPm5qh16zb6fer3FQqFVPhsk1isXYLBUF2FaQAA6gWhEwV2baAdNvPBqxb6aK4U3TdV1342N7e4MmQDALCaCJ0o8Hh00GrsWj4dtnXNpw6euiYUAABUB9+qsOiwValZuVFHeuuaTp+PjwcAANXCtyoM+jHCSffJF596Up7+7pPy5JfvM9uW7tCXv2Ht6+mnPi+HzDZUVjhW3/2KPGK2AcBqIHTCYtdmzqzRbNz5LOu7hveRr9sBr2ZC2aGbZFvULkbbu+3Ckt0nt2xrsovRNtlol2YoHIPyhaAKAKuC0Ik5NWro1G+7cQO3Aw4fl96EXUwMXbILS/aM/Lp33C4mRuSiXVq46B75JLV+ALDiCJ0wKgcsHbwaN3gSOqvnGfnSJx6SBx94SB569BmzbekOP/ppa18PfuKrcthsm1XitHxLP1Yt3zppwqp0y+7PmCIAYEVwRaIatFpXJNLTJVXq26mnEdJXJGok+qpFQ0NDZq3+6Kblgz2qoAOXFcw+JV/77t1ibTr5bfmO3C+f3GuaqAuPsek+gIX7LONy8pufli+ZBxT2bej95YNk8W8vyZEjIgcPdpv9X5N7S57ffrzu5/lx2Wua3S3TXkuF+/uOyoOffaLC+5up4mMOfV6efHiP6F1ar+PYTYX1IvXaH/iCPG7WpOTYFZjXMet9Z3bK0/q9l+7rM18x24rHs3C8Sl9j4XFFfUceks89ZlZK3kPfkaPqIOvnL+5z2r+P2u+R3i1yMP9vMu19AbWPKxK5CzWdmFcj1vi5+tKY20oCpxbdIx8zg3tmBs5S9mCg0sCpRfd+vMLgoG47cM6qQqCcRoe5ue5fmkO3bSkEzOF+FXy3tJUFTk299kLze4VQWTDHfedGxO5NUKxRfWR3/ng0ybbb7OO1sd0+1one41bg1IGxPHBqPQcrD8DqsQJnUfkPAv1vawdOAFh9hE4UzJYtc7nGuzZ5NuveoB2NDssRq7n5qPTlt227yRpckw9BVs2baZJ+8AFTy/mZu00I1LVq5r4jdv/M/N+X0jWJszeBd0u7SXuFx5U89pGv58NUyXM98G05uZTKZ6sPpz2IqBCo1fv7qa45fOwLxefWyzdPTw+LhzolZq3btY2Fx+lazrnuK+nDGuvSYfE+6dIPToxb+7cHU5lt6j32HlMB+NDn5XYTGEuPyRHzjxTde/fMfqiFfyf1byTFv7dqW63t6piZ1wEAq43QiYLZajTdHMBm4+agnTh51DSxPiFn8qnTePyMGeRTCGrfkC+aNHnITkhKk+x92IwEz9fKzRhFboLUrIrPrWtKp48qz4cxpe/FQrO+1S/0Ud2kvTxWoCsEYV1bad6LXsqb2kvCo65ttB7z9U/ZG+a6T73W/GAnK2Ca0fuJ3nMyrDf27FQBMh+8h6Vfv5hCrev0Y1f4N1ERt6ss2edrSC0lf3/yx/njVDLoCgBWGaETBZUmh9cas3m98d6zRdf8FWr7NDtg6qbdQi1oReWByASpOTz+2dKBPYoVdHXILdaCVsW0WtvSgUy6ib+sRnXae9fsAVD52kZLz90qYOrm97nuU5m034qXVsD8otWsr8PkcRmynkAdr8+YmtK+s9aPgGKoXziri4CxlL8HgJVE6ESJykGLPp0N5vBX5aGyplldW3dxKB8QS5u880txoNFiFEahF8Jek7RvKamB7TlQqGm1QuKX8zWJ1ZAPt/r9mNdfsY+nHZCt12m6E5SG7Fnve+ys6b4Qk23WvKI6iOdrHtX73G0/V98Zu1by8LFzhWOQ7/OpFfuCzh3kCyF32t9/Su6lTyeAGkHoRMFs4bIR+3Q2YtDWrIEshebm4kAeHYwOP/qiCVElzetm+dqipx+arVn7kpx5TAW5HxdDaPG51OtptzZWWYXuAnl6pHjp68zfnzgnv5Y57rPCYT48N0nUSpd2jWY+HPb06MePy9A5a1Xd8VV53oTtQpcDteQHBhW7RczisaPFHwmFv59tEBQArDxCJ+bViAGsEYP2bIrT9Twhn3N0YErJlD5WbWtxoFPe8ieWL6Xez7TmdPX8M5rXK9DN9RUHRyll9xVrh0tee6EGVCkEVNuMLgcWu2Z5/vlNdXN/2b9P39EK+wOA1cE8nTVotebp9Hi84vXOnI/T5/NJa2uLWWsMw8NDkk6nzRoAYDUwT6e7UNOJErM1rzdiTSe/xQAAqCZCJ+bViAGsoQcSAQDgAEInCmYLl9R0AgCA5SJ0YprZ5upspJo/ajkBAKg+QiemobaT0AkAgBMInShTOVw2UhCjaR0AgOojdGJBqOkEAADLQejENDSvU9MJAIATCJ1YkGyWmk4AALB0hE4sCDWdAABgObgMZg1arctgarNdCjMYDEo02mTW3G1sbEympibNmjtEo1FZ39Vl3XpnmRYLwMrLqh+5iURCrvT3W7eYjstguguhswbVYugMBPzS3Nxs1txtZGREUqmkWatv7bGY7N+3T7Zs3my2AKhV586fl1dOnJCh4WGzxXlZ8UjWG5Csx6fKXsmZH6UelQzUPeLNZcSXS1u3q4HQ6S6EzhpUi6HT5/NJa2uLWXO3YXXCT6dTZq1+7di2Td5z551mDUC9+MVzz8kbvb1mzRlZda5Pe0OS9gQkY0JnriR06tnzvCZ0elXo9GWTEsimVABd2XMjodNd6NOJaWbvz5hrmL6Obnifm3p6CJxAndKfXf0ZdkpKhc1JX4tM+Ftkyt9shc+sxy++QEBam5sl1tIi4bDe5lP3BSXpa5JJf6v9eG+kGEyBRaKmswatbk2nR7xev1kr8nq9Vk3nbJfJdAsdOIeHhySTWZ2mpGr52Ec+Ii0N0h0CcKOxeFy+873vmbXq0F/2SRUak/6oVcOpTugSCQVl59aNsmlDl3TEWqUpErb6fU8mUzI8MiaXrg3I2XMXZWBo1NqHN5uWYHZcQplx8eacn+mDmk53IXTWoFoNnS0tzdatm+npkkZGhus6dO7ZtUtuv+02swagXj1/7Jicfu01s7Z8U1aNZbNVq6mrD/bs3CoH9u2Wt2/fIm1rO2UqGJGEOvXpGfJC6lQfyaUkPTIovecvyiunzsqxE6/KlAqjHhU2gyp0RtJjaj/ORghCp7v4tm3s/mtTRo0It7SZ0mrQoVOfjqbXaOowGgwGGiJ0Tk5O1nUT+63791PLCbiA7ktfrb6dKW9QJgKtdjO6Oo/ffdtNcv/73i17b7pRLvhjcjzhk5eHs3JiNCevjuXkbCInfUmvJEPNsnNzt9y0db1EwiG5cPmaTKXSaj8BK3D6c84OupyK2zWscAdCZw1azdCpw6XHM3Mgkd4eCAQbInROTU3Vdei8/cAB68sKQH0LBYNy4tQps7Z0elT6RKBNMip4au+9fb/8wYfvFVnbLT+9npVfDGTkdDwn/So/DqdERtIig+q2bzInb6jweT2Zk2hzVO7evVGCfp+8fu6ipNIZtT+/+LMptXfnWoYIne7CQCJMo8NWpcBlb6vfILZQ9Rw28/ScqgDqX7U+y0lfxBospO3ZsUV+/0P/Qsab1sj3LqdV4MxKOueRXS1+aclMSOryOUn29Up64Krk0mlJqVPiqbGcHL6ckWOJgNx3zx3yvjtvtfaV8/is5nr3fzOgWgidWDA3BLL5zBa6AaAe5cQjU/6oVQ4FA/J7v3OPRNrXyj9cSVthUvfd/OjmiDy4tUk+ujEknlO/kvGXfmYvL/9CUlcvWudEXfP5w6sZeTMZkPvvvUs2d6+z9qlHwmf0oCRgAQidWLBGCZ0A4BZ6lLrux6ndsHOL3LznbfLPAxn5rQqcWoc3Lff1RGT/mqD8zvYO6UzHJa1rO3tPy8Qrz1rhM9Vn9yvVTe8/uJKR1lhMPvDuA9Y28XismlRgIQidqKBy8GqEPEboBOAmKV/YlETueed+mRKfHFWhU9Pnu9ETx2RgYNBaHxwZlTWxFumImXEF2YykLpxVwfPnkknYfSv1AKPX41m585a91nRLWtpbfA5gLoROLIg+OTVKTSfBE4Bb6KsNaXow6L7dO+TceFYGzIDzzOigXDj2rDz5nR/I//zHf5K//f5P5X3vvk0+fuh99gOM9JVzknzrVausZ+Z8ZSQrHe1t0rO+09qWsS6hyYTxmB+hE4vQGKETANwiI/ZMFpFw0Jr8/dx48RyXvnJeMhMJ+dHR563g+YOf/VK61621lnLJXjt0aufVPnSI3WhCp25i14OKgPkQOjHDbMGrEfIYoROAq6hAqEVCIWvKOz35e15mbMSURCankjIxOSX/9Ts/lP9x+Cdma1HpYxMZ+zzZFLZHxGtcGhMLQejEDPoXbCV207NZcSH7/RE6AbhH/opB+kpC+vymR6vneYLF0Jj3wvFTcvLMm2atqPSxQbMPvc8Czp1YAEInZpgteNnb3X5i4cQJwD08Wbtqc3xySkbG4tIdLlYqBNZtUilgYTEg0L3FlEQ2hOx9XL42YN1qK3EddtQ/QicWwf2BjJpOAG7iy9m1kfpqa6ffOC/box6Jmu6X/o51Eti4w16Zg7e5TUI7bzRrInvbvDIaT8j5y/3WujeXEY81xAiYG6ETM2yMJmR325C0BpPi8xRDmFsDmVe9x+ZASra2jkpneMJsBYD6F8gWr41+9NhxafOL3Bqzv/o9/oBEbn6P+DcUazHLeZtjErnp3eJfu95aXxcSeUerT146+ZrEE/b50p+ZYuw6FoRrr9eg1bz2urapOSF/vPu07IkNSUd4UiL+jExlfWoJWNdfn63PZ73RQXNHbFRu6bwuBzf1ybs2XJGTV8Nybby+r66x/8ZijQSA+vbKiROmtDSeXNaaqzPn8crQyJjs3bVddq+LyWvxnIylVaiMtoqvJaYCaMklN1UY9amwGejeKqG33yLhXTeJx+ez+nJ+ZINPejxT8sT/+r5cHxrRtRESTo+Jz6Hrr3PtdXchdNag1Q6dsVBSbuu6LhuaxmVH66jsbR+QA539srt9VJqbfJLK+WQi5Rd9ebV6ojvUr4tMyI1rB+Tgxj5535Y+OdB1TXavGZGOyJRMpT3y7PlWGZq0r95RrwidgHssO3Sq854eWa6vvZ5MpWVkLCF37d0hHdGQXJzISiLjEV9ru/g7u8UX67BuAxu2SHDzTgltf4cEN+6wAqcegHRPh1fe2+GRH/3sl/Kz51/WedNqvo9k4o59GxA63cVz8I4DdGKrMW0bNpnS6tjSkpDP7v2txILFZhlNn3gC6uQkXp+MJgPSF4/K5XiT9CWi0j8ekamsX9JZj2SyXknn7NuMus2qxan/yPSJTjeP+zxZ8Xlz4tdlb1b8qhzyZqRLBefuqFqaE9KjltZgataT4+CEX/6ff+6RvtGSX/x16KE//ENTAlDvnvybvzGlpct6fBIPrLEmivf5vHL/wXfLRz5wt5xJheWfB7NWrWd6jpP0hrBHDsS88h51+n/l5ePy3/7+RzI4MiaSy0o0NSzB7KR5ZPWNXL5gSnADQmcNWu3Q2RmZlL+88YR0hKfMFsPrlWDrGit8lsuq/4rG0wFJpPxmCah1v0xlfNYymbZvUzqQqmCaznmtckaVdY2p/vucDqhmf7rHkUcFSB0odUjUIdJvhUm1qG0BdRvyZSTsz9i3vrTVDSAaSKklbS1N/pT6e2t3C6Kb1b9ytEeu13nzOqETcI9qhE4t6Y3IeKDNamYPh4Lywfe8U+6981ZJtXZa12E/P5GV6+qUr+fg1KFA12y2BzzSHfHIrmavbPZMyIsv/0YO//Q5a9S67uOfTiYllh2SOyI5Wace+7NEVtRuqorQ6S6Ezhq02qFTN69/fv9vpDNc9utVnayCbZVD53x0bae9qHCZD5nqVjfP5Jvpy8cp5buOWrFUlfWtDpH5Wx1I9VItV+MB+dLPNslYsr6vrEHoBNyjWqFTnzkn/VGZ9DVbwTPg98ttN75dDuzdLTu2bZZc6xoZSnmsyeP1WVWHzpj6/d00FZcrfZfk5dOvy3MvnZCh0bgVOFOplCQnk/L+5kl5eI0KnX6P/ONYRr6vlmoGT0Knu9Cnswatdp9OHfDes+GqNAfSZkteTnzhiMqeuh5ycfQ+rWZwq8ZS11TatZVBX3EJlS2l9+nH6r/Rf6v3YdWAqn1W0+iUX378ZswKx/WMPp2Aeyy3T2cpX1Z3L8pJ1usXfVGhC5f75c0Ll6X/+qDEB66LJz4oocSQ+Eavy2T/Zbnwxll56fgpOXrsFXnhN6/KxFRSfQ1kJZVMSzKZlHc3pVXgFHl72KNCqke2BvTeRXpTczfXLwZ9Ot2Fms4atNo1nTpy/fWBl6UnmrA3lAi0rRGvv76bn2fz1nBIHj2ifvGb9XpFTSfgHtWr6bTpliU9mj3pDVuDi3Stp6b7era3tkhTJKx+0HtkSoXK4dG4dXlMm/rBn01KIDMliams3BIW+ZOOjNygbkuNqTR7uIo1ntR0usviq6zgejp06SmSKsll3TsBcDzpq/vACQBz0XWRwcyENc2RXgKqrEegZ9MZawqk85euyrm+K3Ll2qAKnFPizaUlkJ1Uj41LRD0+kknIe6PJioFTa/F55FCLTz6klmB9NxrBAYROVDQyNUttZnnHSxeJJ93xcdDNXgDqn5OfZb8Kk2EVIHWQzAfQkLUkzGJCZuH+uDXRvO7a9PsxT8XAmaeD5/2tPrk1QsTAdPwXgYri6VlCp4trOsem6nsAUd7A4KApAahnK/FZ9qnwGcxMqgCqQ6YdNHXItG/jVq2o3/QFzXtjKitTejToHFq8Hnl/MxED0/FfBCqaSFeeID2Xc3HorPNR63nnL9AHCnCDlf4s62CpJ67zqqU0ZJbSWfPvRzPyzJi+Ut3cwXNjgIiB6fgvAmV0JxyPDCcrT5Du5j6d4+mg+Hw+8Vqj8+u3M9Lp116TsXjcrAGoR/ozrD/LtWhEfQ0sJHhe10PkgRKETlgjFXXQ8np14PKp4OWXS+MtlX/nurSmU185aTCzVtraYtLc3CLRaFTC4YgEAgHr+NSbF1580ZQA1KNa/wyXBs/JCsEzqTYdiTtzPXbUL+bprEErMU+nx5MPmV5V9lnrOlzlA9bwVEj8vpxsbxlV26xNFv1YPVenm+irIv34/EZ55VqneoNeq7ZTh029BIMhFT5DVhDXEyJn66Smd3RszKop2bJpdaffArB4v3juOXnr/HmzVrumVLB8S6VL/R3R6vNIk1c3zufkclrkZypw/lM8a4XP5WCeTndhns4a5Nw8nXaNph0s56+983lycltnv7y/57ysDU9KyJcWrwpfwViHeUT90oPwJzM+GZgIyz9d6JGTAx1Wbed80um0TE5OSiqVtAKoDqK1rD0Wk/379smWzZvNFgC16pwKmnoy+KHhYbOlPujxQjeFvbI+oM6h6pR4NZOT4xNZGavCb3Tm6XQXQmcNqnboLNZiLq03RXMgJW+PDcnb2sZkW2xcurtCFa5WVB/iKb9cGW+Si2NR6R1plddH2mYdNDWXTCZjTWeSTE5Zl4Ordbq7wPquLuvWW1p1DWBVZdUP10QiIVf6+61bTEfodBdCZw2qZuj0ev2mZnPpAgG/BINBCQe80hTISCSQta5WtLt9WDa3xKWracK6PGUtSmc90j8ekfNjzXJmKCZ9iagVMicyPslkl9+lWdd2Tk1Nyvj4eM3XegJAvSF0uguhswZVI3TqoKkD51LYtaIeq09jKKT7M84dzoLejKyPjsvG5risUwG0Izwl7aEp65rp1rXWPVnxqtyrJxUuXazpOdT2+SKx/g9U5zlrMo9c+aKCZc5r9ctMZrwyNBWSgcmQXFVB82K8Wa4kmiQ5y9WVqkk3u8fjY9YtAKA6CJ3uQuisQcsPnTpw6sFBi6/h1INodK1mMBiw+n8ulQ6UTf60RANpiajbkC9jhdCgug2pkKrLfq8OoyqAqsd7VTj1qr/R65oVKHXIVGFSdwvS6+ms1wqW+hKdyYxeVFnd6prLRMov4+pWB9PVopvZx8bG1GtmxCYAVAOh010InTVouaFzqU3q4XBYQqHgssLmUlmv1qr9tFn/UaqgWW//cU5OTkicOTIBoCoIne6y8ukCjlts4NSPb2pqkkgkvCqBU9PhMqdrN82iy/X4a0hPsQQAAGYidMKq4dTN6Vg+BhMBAFAZodOFFnN9dL/fZ01+vpTmeMw0NTVlSgAAoBSh04Xsq+YsrMZNX2kH1aHn7dR9OgEAwEyETlfKWZOXL6Spt14u61jr9FWKEok4xxMAgFkQOl1LXyc8Pe/0Pel02gqoWBp97MbGRq3AyXEEAGB2hE6X0/07dfi0+3nOrPnUtaGJxDiBaRH0MdPHa3w8IcPDQ1Y/TgYQAQAwN0JnA9CBSNd46qCkb8sHGuntOngmk7V/DfHVpI9Tvhl9ZGSYS18CALAIhM6GkrMCpx1Ade1nMYDaNXfjKlAl1P30S8zLX1t9dHREBc0RK3Dq4MkxAgBgcQidDUvXfuYDaMoKoLo8NZVUAWtMJiYmrCDaKDV5dm1w1nrP6XRKvf9xqzZzcHDAurSlHplu1xJTswkAwFJwGcwatPxrry+XR/S0nfr67YFAQPx+v3VNdn21Ir3U+5ye+YBZDN3522IZALD6uAymuxA6a9Dqh87pdMi0g2Y+jHqtIKpDqc/nteb6rMUwWqy91CP07TCpR+vrbXaFpe5uYC8AgNpD6HQXQmcNqrXQuVA6dOZrQ3Ug9XrtsOrxFGtI9bZ8eNW3i6MDon2bzdph0Q6QerG36WCZr8UkTAJAfSN0uguhswbVa+hcrOk1o7qs/1PMb8uXi/95EiIBoLEQOt2FgURYNTpEFhe7ZtK+LS0XHwMAAOoXoRMAAACOI3QCAADAcYROoJF95ivy9HefVMtX5BGzyXmfkq9Zz/mkfO0zZhNm9cjX7WP19FOfl0NmGwDUIwYS1aBGGUgE5+igcrDHrExzSY488AV53KwVHzcuJ7/5afnSYWuzs3TQPdhtFRMnvy0PPfqMVZ7uPvniUx+XvVGzWqrvqDz42SfMivsV/o0Sp+Vbn/iqrMQ/EVArGEjkLtR0Ag2lWw6W1Go+fuaSKQ1LvwNp5tCXv2HX0n39U2aL8thZ6TPF4f5KgXMePXdT6wcAdYjQCbiZrh174CF5UC1H8klPBc/d+Wbtx75g3fdgSe1n9dwnt2xrMuVST8jnzGv63GNm01x0zWb5e4hukVtInQBQV2her0E0r2O5KjbJljRr9x2xA5+uifzkXh0M883uur/l3WL96clvy3fkfnO/Nr1pXiv+vZFv+j70eXny4T1S3jpuNacfu6lwX/51zFTSvF7anF7+HqS4XlDWDD3jNZZ0JZjtvv4PmONX8twzj2nxNRa7CVToFlD2ekr3c6R3ixzUz194nrK/V9uPyN00r6Nh0bzuLtR0Ag1BhZnb8+HskpxZSA3jttLAqXXLwZJmbR2ept+v6Kbv0qb0Kntkd/49jMvQORUau2JmvUR0j3zSvM6ZobJorvsuDo3bhZ6dpivCp2S3Dn5aoZa1W9qtcDguvcdU4NRB+7sV+qHq11NpoJbabgXOggqBVR1PK3ACgAsQOgE3swKPHv1cDDN9RxbWlB6NDssR06z9rZMmhOUDlwpYt5swpGscrebvb56WhN6gg9rhr8pDD3xbTlobFF2Tpx5TedDQPHSQNaPdCwGs70WrpvLwo5+2nzu/HDF9VM3r3NhuQp2uJSw8zq7lnOu+w8fO2e9FYtJlvd9OVVIPTejj0CTtW4rbJHFOfq3+5pEP5Gt2dY2w2V/+mKiAevuX77NKpQrHTtdyfubuwr+Rrjm1X8/RQv9XAKh3hE6ggczenD1T4uTRQjgthjATuLa0FZrOew6aKX0KzekmqDnECmr55nardtE8v17KmtoLA6UK4fsb8kXz2ua6Tw4fl17rDdvv99BtW9R7G5fe3mHr7p7dnyoeg+FrVlN7odK172wx1Bf2o56mvawbQFmNc7HW9pI8XwjnT8gZUicAlyB0Am5mavHyNZU6IFZjbsyKzdoFJphWi6klzS/F0Pwp+Voh6JraxXxNZ54eKFWobdSaZO/DT8qTutZxrvvkGem386UKmJ+3B0TpGs1jI/bjY53yiDkGfWd0AM43tS9CYkQumqJWqHkFAJcidAIN4PCj/1Bo6u45uLCJ4KPbbir23yw0Hdt9KQ/nE5lSaCKuGAwdlG/etgKn3WWgYhi2mvr16yo29xdqHee4r1ATGtsi2/Sb1zWa+ZrLaJvstkJivraypEay0A9UOXST/bdKYqgsEJcp9CMtnV2gpBsDANQ7QifQEJ6RL/1tsX/hwYUM9ik0O8/sSymPHS0JsaZp2yx2TaFWrC3M98ss3ldNeu5R+7nLBwbpwU7F11bSr/XME3PeZ8nPJxptsgK3vT3/nrqlRx+TktrKx39ccnzz+y2piS02mVd2+NEXC/03Z3ZZAID6R+gEGsXhr8p38gOCVAicLwDqPp2FgUBayfRBVoj9ROncn5U9/lkHB8LoWsrS5nTdlaC8eb2Cufq1Tr/vkgwV3r9dw6sVJ9RXT9l7vDiFkVVrWuH9Wt0DFjJ4S89fOv3v9YCi+Y4xANQL5umsQczTidUzfZ7OJY02B4AqYZ5Od6GmEwAAAI4jdAIAAMBxhE4AAAA4jj6dNYg+nQAA0KfTbajpBAAAgOMInQAAAHAcoRMAAACOI3QCAADAcYROAAAAOI7QCQAAAMcxZVINYsokVFs0GpX1XV3WrdfjMVsBrLZsLieJREKu9Pdbt5iOKZPchdBZgwidqJb2WEz279snWzZvNlsA1Kpz58/LKydOyNDwsNnivKx4JOsNSNbjU2Wv5MyPUo9KBuoe8eYy4sulrdvVQOh0F0JnDSJ0ohp2bNsm77nzTrMGoF784rnn5I3eXrPmjKzHK2lvSNKegGRM6MyVhE61otbs0OlVodOXTUogm1IBNGXfv0IIne5Cn07AhTb19BA4gTqlP7v6M+yUlAqbk74WmfC3yJS/2QqfWY9ffIGAtDY3S6ylRcJhvc2n7gtK0tckk/5W+/HeSDGYAotETWcNoqYTy/Wxj3xEWtSXB4D6NBaPy3e+9z2zVh36yz6pQmPSH7VqOEWFx0goKDu3bpRNG7qkI9YqTZGw1e97MpmS4ZExuXRtQM6euygDQ6PWPrzZtASz4xLKjIs3l7W2OYmaTnchdNYgQieWY8+uXXL7bbeZNQD16vljx+T0a6+ZteWbsmosm61aTV1XuWfnVjmwb7e8ffsWaVvbKVPBiCQyenCTSMgrEsmlJD0yKL3nL8orp87KsROvypQKox4VNoMqdEbSY2o/zkYIQqe7+LZt7P5rU0aNCLe0mRKweLfu308tJ+ACPp+van07U96gTARa7WZ0r1fuvu0muf9975a9N90oF/wxOZ7wycvDWTkxmpNXx3JyNpGTvqRXkqFm2bm5W27aul4i4ZBcuHxNplJptZ+AFTj9uaR5BmdMxe0aVrgDobMGETqxHLcfOGB9WQGob6FgUE6cOmXWlk6PSp8ItElGBU/tvbfvlz/48L0ia7vlp9ez8ouBjJyO56Rf5cfhlMhIWmRQ3fZN5uQNFT6vJ3MSbY7K3bs3StDvk9fPXZRUOqP25xd/NqX27tzIdkKnuzCQCHCZoPqiAlD/qvVZTvoi1mAhbc+OLfL7H/oXMt60Rr53Oa0CZ1bSOY/savFLS2ZCUpfPSbKvV9IDVyWXTksqJ3JqLCeHL2fkWCIg991zh7zvzlutfeU8Pqu5nj56WChCJwAALpUTj0z5o1Y5FAzI7/3OPRJpXyv/cCVthUndd/OjmyPy4NYm+ejGkHhO/UrGX/qZvbz8C0ldvSi5XM6q+fzh1Yy8mQzI/ffeJZu711n71CPhM3pQErAAhE4AAFxKj1LX/Ti1G3ZukZv3vE3+eSAjv1WBU+vwpuW+nojsXxOU39neIZ3puKR1bWfvaZl45VkrfKb67H6luun9B1cy0hqLyQfefcDapkfA65pUYCEInQAAuFTKFzYlkXveuV+mxCdHVejUdA3m6IljMjAwaK0PjozKmliLdMTMuIJsRlIXzqrg+XPJJOy+lXqA0evxrNx5y15ruiUt7S0+BzAXQicAAC6lrzakeTwe2bd7h5wbz8qAGXCeGR2UC8eelSe/8wP5n//4T/K33/+pvO/dt8nHD73PfoCRvnJOkm+9apX1zJyvjGSlo71NetZ3Wtsy1iU0mTAe8yN0AgDgUhmxZ7KIhIPW5O/nxovDftJXzktmIiE/Ovq8FTx/8LNfSve6tdZSLtlrh07tvNqHDrEbTejUTex6UBEwH0InAABupQKhFgmFxOv1WpO/52XGRkxJZHIqKROTU/Jfv/ND+R+Hf2K2FpU+NpGxg2tT2B4Rr3FpTCwEoRMAAJfKXzFIX0lI9+HUo9XzPMFiaMx74fgpOXnmTbNWVPrYoNmH3meB2jcwH0InAAAu5cnaVZvjk1MyMhaX7nCxRjKwbpNKAQuLAYHuLaYksiFk7+PytQHrVluJ67Cj/hE6AQBwKV/Oro3MZrNy+o3zsj3qkajpfunvWCeBjTvslTl4m9sktPNGsyayt80ro/GEnL/cb617cxnxWEOMgLkROgEAcKlAtnht9KPHjkubX+TWmP3V7/EHJHLze8S/oViLWc7bHJPITe8W/9r11vq6kMg7Wn3y0snXJJ6YsLb5M1OMXceCEDoBAHApvwqd3lzaKh8/fVZe670o93b6Cs3suom96db3SviG28Tf2S3ephbxRKLii3VKcPsNErn1Hgm//WZrtLruy/mBLp94pybkh0d/Zf297ssZyNjhE5gPoRMAAJfySlaCmXGrHB+fkP/1zM+kOZWQf7neZ9VaWmGyZ5sKnvdI04H32osKoU0H1LoOo7v3WzWiegDSPR1eOdAm8qNfvKDC6wVrn7r5PpAr1qYCcyF0AgDgYqHMhPiydt/Ol357Rv7+J7+QXf4JuV8FzxtaPOL3qDDQ1CzBzbskvOdWibzjNgnt2Cv+NV1WKN0Q9lg1nO9f65HnXzwu3//fz0k2mxPJZSWcjhdGyAPz8W3b2P3XpowaEW4xlyADlmD/jcUO/wDq2ysnTpjS0ulQ6MnlJO0Nic6Kb/VdkVQqLTduiMnbOpolFvBIxCcqfHrEpwJoWJXbAiKbIh65sc0r7+7wyd7gpLzw4q/l7378C7k2OGxNv5ROpiScTchtEXXeiXilL622VTl/TsXty2/CHQidNYjQieUgdALuUY3QqflyGZ0+JeMJSDqTlTfPX5KhkTGJ5lKypz0ouzqaZEuTV7ZHvbK7xSvvaPXKTSpw7vQkJH7xLfnZr16yrlx0bWjECpypVEqSUym5sykr/0e7V25vsofE96aqGzwJne5C6KxBhE4sB6ETcI9qhU5NN7HrWs+s1y/6okIXLvfLmxcuS//1QYkPXBdPfFBCiSHxjV6Xyf7LcuGNs/LS8VNy9Ngr8sJvXpWJqaTVpJ5KpiWZTMq7m9Ly8BqRt4c9EvJ6ZGvAbmivZvAkdLqL5+AdB6pcGY7latuwyZSAxXvoD//QlADUuyf/5m9MqTpyKnamfGFJesNWc3vOYw/t8Pm80t7aIk2RsNWPc0qFyuHRuHV5TFtOhdakBDJTkpjKyi1hkT/pyMgN6rbUmEqzh8cy8n21TFRh6s6Ry/aAJbgDA4kAAGgQui4ymJmQcHrMWvR0R3oEejadketDI3L+0lU513dFrlwbVIFzyppuKZCdtAYMRdTjI5mEvDearBg4tRafRw61+ORDagkyeSfKEDoBl9HNXgDqn5OfZb8Kk2EVIHWQzAfQkLUkzGJCZuH+uDXRvNeTk9+PeSoGzjwdPO9v9cmtESIGpuO/CMBlBgYHTQlAPVuJz7JPhc9gZlIFUB0y7aCpQ6Z9G7dqRf2mL2jeG1NZmdLD4OfQ4vXI+5uJGJiO/yIAlzl/gT5QgBus9GfZmlpJsioYZKeFzFI6a/79aEaeGcvMGzw3BogYmI7/IgCXOf3aazIWj5s1APVIf4b1Z7kWjWQXFjyv6yHyQAlCJ+BCL7z4oikBqEe1/hkuDZ6TFYJnUm06Es+YNcBG6ARc6EJfn/ziuefMGoB6oj+7+jNc6/LBU0+PdNHMzZnO5aRPlb8/mpZfjVdhziS4CvN01iDm6US1tMdisn/fPtmyebPZAqBWnTt/3poMfmh42GypD3q80E1hr6wPePR0nnI1k5PjE1kZY55OlCF01iBCJ6otGo3K+q4u69brYfI8oFZkczlJJBJypb/fusV0hE53IXTWIEInAACETrehTycAAAAcR+gEAACA4widAAAAcByhEwAAAI4jdAIAAMBxhE4AAAA4jtAJAAAAxxE6AQAA4DhCJwAAABxH6AQAAIDjCJ0AAABwHKETAAAAjiN0AgAAwHGETgAAADiO0AkAAADHEToBAADgOEInAAAAHEfoBAAAgOMInQAAAHAcoRMAAACOI3QCAADAcYROAAAAOI7QCQAAAMcROgEAAOA4QicAAAAcR+gEAACA4widAAAAcByhEwAAAI4jdAIAAMBxhE4AAAA4znPwjgM5U0aNaNuwyZSqx+fxSMjnEb/XIx6zDYunPyzpbE6mMjnJ5PjoACuJ81jtcfqcOHL5ginBDQidNaiaoTOgTs5tQZ9E/FRqV9tEOisjyYyk1AkXgHM4j9UHJ86JhE534RPsYk3qBL2+KcCJ2iH6uOrjq48zAGdwHqsfnBMxH2o6a1A1ajr1h39t2G/WbB1d66UlFhOPlxPCUuWyWRkbHpaB/itmi+36ZNr6lQ+gejiP1T6nz4nUdLoLobMGVSN0blC/NnW/J625LSZvv+lWaWtfY61j+UaGBuXV4y9JfGTYWtd9mi6Pp6wygOrgPFY/nDonEjrdhZ+KLtQc8BVO1MFQWPbffhcn6irTx1MfV318NX289XEHUB2cx+oL50QsBKHThSL+4rjObbv2SCgSMWuoJn1c9fHNKz3uAJaH81j94ZyI+dC8XoOW27zeEw2KqSCQuz7wL+c/WY+flV/95GVJmNWuOx+UfZ1mxUi8eUR+dWJAlTpkx/sPytYme7tWuK/9Zrnj7p0SlX458b2fq/+vbLtH7r2xy3qcrXhf4XkKzz9z35Xu6//N03KiV903Y9+lKjzPfK69LD997qxZqfBaKpiamJBnf/yPVlkP2OxLJK0ygOVZ6HmscD6YxbTPf9m5rpLovg/JHdujZs1W8TlmnH8S8tbRH8gbQ5XOOSXnRMvM88t870PruvVmSbw0x+svnINnmrb/GY8rvvbZqdd8S7u88Wt1jpzjeap9TqR53V2o6XSh/IlaW0jtQOLK+Wknsf7LxVPjTAPyxtm57i/Te1LeGjflGtd/OR84tQG5cmWuryZb6fEtPe4Almex57HZ9D+nwtY1s7JYOqR+b5Yw2Ptz+en3Xi4JkrMpD5yaOo/+5Ej1z41DL8uvjp6tEEr75Wrpexg6L9ccOi9zTsRcCJ0NLyHXLuoaTPUrettO61Z6++Y+kaqT7cJP4urk+mKlk2CtyZ+UO9Rx6LC2JC5eroPXDcCiax4/8uC0Zd82+66ZP6R1TeP0x+aXYi2nCouFWtGdsq/0Mfvsc4TIWTnxm7ljZ+LNk+Z8mt/Hh2RHu16f/gO+68bi/u+905yLy553X6FLa4XX//6b7ZrHSoHymjmnt++ULvPc039UR2Xr3cV9Fd6frtEsPMdB2Wp31wSWjNDZ6MYvyxWrSWWnrLuxR+zGorNydZ5Q2X96EUFS/fp+c6k1DSulcFLeLNt3bp795A2gbkSbTXgaHl38D8j8OcEKfjebc6Mtuv2gHWjn7OJTpr3FNEergLfHhMqlvK7ZNLWa/Q/IWNlO86040Y27ZPtGflRj9RA6G1yhaX2bDpxdsm7WmgGjvcMEspflxJvzn7Ki6vFa/3MLaYZaPcWT8gaJNm2Q9RVrAwDUj2IrjsTygWzhCueEfbumBc48q2ZyAYEz2mKdTKxzptVUr3+Ad95s1x7O0i9ySQohuUNapu202Iqzfn1Uouv5UY3VQ+hsaMWTcrTZPkt1bZiviX2zbDdNL4kTr80bJKN79hZqT99cQEhdHcX+TlHrbB2VTmoDgPpi9bF8umTJD4zpkB07y8Oh7lNZ+tj8kv9xnJBxe7rJ5VMBM9/Mr+k+ptZzzdMsP7cKrz8/CHLb3ukDIAthtF2a9HZ+VGMVETobWaFp3f4FbOmcv4k9uv120ydp/v5MKsbKPtM/KXHi+WV0nDcnTCeUNKOtMyNOqQ0AXMDq5zn/LBQLZgYWTQt7FQfuTGfViub7XObpkLyAv10408+zrPa1MEDSas3S+FGN1UPobGDFUeulv5qLoyxnH8Ve0iep96S8GbeLs+rcVdJxvs/aVEuKo9ZViM5/kRQGEFAbANSF/ECi0nA3a5/J2QYS5ftuRqUpZhUkEa/S579pZ2FQTqHmc8n93Yuvv1iLOrMvZ2krTmlNsD39ncKPaqwwQmfDKunvNJu5pjsqNBkNSH/vPPvRIfWA+SLoPVsItQWFDvAVJMYc/iVeNpVIBQvpRgCgRuhwlx/9rftRLrEZu2JXo5LgWBxhPhc9/6UJeiXdi7puzI9gX77SffU/VzYNU6EVZzbTR9ADTiN0NqqSpvWZv/jvMb/2567l69pZ1lw0F3Wy3l7Sr2m6qNh97dUJcNr0SuqEfdrUQhZGflbZtBGqZcehUGMy/2h+ADWktB/lUucKLrTQ6BaQ8oGQ/XKicCGJuZTUmJb+eL322jwTsS9GyY/6shBZbFqfOZ1UYVqk+abIA6qI0NmgCk3r7Zulc0Z/p+Io9jn7/Kggua8wX938um7Mh9lyJc31ZoSn3QxUvEJGl7p/RuicMXDALGU1G4WO+2WLHkU6s79TiUKHe/04TstAPSmeb8p/zGpqW8WBRGopnD9Kw1xJ1xtrKXZDsma8MOVKij/OS/aRD6ztN8v2hVwtbT6l5+LCPMrFVpyuDTPPvIV+6/yoxgoidDak+acSKTQtzdPnJ7o9Pzp9IboKI99n0FOIlHe0t9g1sQu6jOWilYxaN6P3pyt2uKc2AKg3xUGMC53ibQbTnF46+rzA1B6WXzJzBmsfFX5w67+v4pRJxQGe+of2y9I/6xRKBj+qsQq49noNWvFrr2PJuPY64AzOY/WJa69jLtR0ulAymzUlkWuXa2+0uJuUHt/S4w5geTiP1SfOiZgLodOFJtLFyuve105bvzxRffq46uObV3rcASwP57H6wzkR8yF0ulA8lZG0btdQklOT8srzz8rI0KC1jurQx1MfV318NX289XEHUB2cx+oL50QsBH06a9By+3RqEb9X1ob9Zs3W0bVeWmIx8Xj5rbFUuWxWxoaHZaD/itliuz6ZVr/qaUoCqonzWO1z+pxIn053IXTWoGqETq1JnbA7yk7YqL4BdXIdJ3ACjuA8Vn+qeU4kdLoLPxVdTH/or4ynqIFziD6u+vgSOAHncB6rH5wTMR9qOmtQtWo6S/k8Hgn5POL3esTMQoIl0B8W3VdpKpOTTI6PDrCSOI/VHqfPidR0uguhswa1rt8oHnVyBQCgUeVUiB29ctGswQ1oXq9FzG0GAGh0fBe6DqGzBmXSKVMCAKAx8V3oPoTOGpRJcilFAEBj47vQfQidNSg1xZU3AACNje9C9yF01qBMKmktAAA0Ir4H3YnQWaOS43FTAgCgsfAd6E6EzhqVHE/wKw8A0HD0d5/+DoT7EDpr2OToiCkBANAY+O5zL0JnDUsnJ2VqbNSsAQDgbvo7T3/3wZ0InTVuMj4iU4kxswYAgDvp7zr9nQf3InTWgcnRYYInAMC1rMCpvuvgboTOOqE/jBMjg9a1aAEAcAP9naa/2wicjYHQWUf0aL74tSuSnGBUHwCgvunvMus7jZHqDYPQWWeymbRMDA/KWP9lmYyPSjadNvcAAFDb9HeW/u7S32H6u0x/p6FxeA7ecYD22jrn9fnFFwhYtx6PV3LqfwAArDaP+l8ul7XCZSaVImQ2OEInAAAAHEfzOgAAABxH6AQAAIDjCJ0AAABwHKETAAAAjiN0AgAAwHGETgAAADiO0AkAAADHEToBAADgOEInAAAAHEfoBAAAgOMInQAAAHAcoRMAAACOI3QCAADAcYROAAAAOI7QCQAAAMcROgEAAOA4QicAAAAcR+gEAACA4widAAAAcByhEwAAAI4jdAIAAMBxhE4AAAA4jtAJAAAAxxE6AQAA4DhCJwAAABxH6AQAAIDjCJ0AAABwHKETAAAAjiN0AgAAwHGETgAAADiO0AkAAADHEToBAADgOEInAAAAHEfoBAAAgOMInQAAAHAcoRMAAACOI3QCAADAcYROAAAAOI7QCQAAAMcROgEAAOA4QicAAAAcR+gEAACA4widAAAAcByhEwAAAI4jdAIAAMBxhE4AAAA4jtAJAAAAxxE6AQAA4DhCJwAAABxH6AQAAIDjCJ0AAABwHKETAAAAjiN0AgAAwHGETgAAADiO0AkAAADHEToBAADgOEInAAAAHEfoBAAAgOMInQAAAHAcoRMAAACOI3QCAADAcYROAAAAOI7QCQAAAMcROgEAAOA4QicAAAAcR+gEAACA4widAAAAcByhEwAAAI4jdAIAAMBxhE4AAAA4jtAJAAAAh4n8/5NY2IW4mlwQAAAAAElFTkSuQmCC;movable=0;resizable=0;rotatable=0;deletable=0;editable=0;connectable=0;" parent="1" vertex="1">
          <mxGeometry x="280" y="130" width="669" height="586" as="geometry" />
        </mxCell>
        <mxCell id="klAf62AJUxECMU4ouiQL-2" value="&lt;font color=&quot;#6e5d57&quot;&gt;&lt;b style=&quot;font-size: 15px;&quot;&gt;SIGN UP&lt;/b&gt;&lt;br&gt;&lt;div style=&quot;&quot;&gt;&lt;span style=&quot;font-size: 15px;&quot;&gt;&lt;b&gt;From this window, reached by pressing the &#39;REGISTRATI&#39; button, you can enter your credentials that you will use to access the app&lt;/b&gt;&lt;/span&gt;&lt;br&gt;&lt;/div&gt;&lt;/font&gt;" style="rounded=1;whiteSpace=wrap;html=1;strokeColor=#6e5d57;strokeWidth=5;fillColor=default;gradientColor=none;spacingTop=0;spacingLeft=0;spacingBottom=0;spacingRight=0;spacing=20;align=center;" parent="1" vertex="1">
          <mxGeometry x="200" y="140" width="310" height="130" as="geometry" />
        </mxCell>
        <mxCell id="klAf62AJUxECMU4ouiQL-4" value="" style="endArrow=classic;html=1;rounded=0;fontSize=15;fontColor=#6e5d57;strokeColor=#6E5D57;strokeWidth=3;exitX=0;exitY=0.25;exitDx=0;exitDy=0;" parent="1" source="klAf62AJUxECMU4ouiQL-5" edge="1">
          <mxGeometry width="50" height="50" relative="1" as="geometry">
            <mxPoint x="170" y="340" as="sourcePoint" />
            <mxPoint x="820" y="490" as="targetPoint" />
          </mxGeometry>
        </mxCell>
        <mxCell id="klAf62AJUxECMU4ouiQL-5" value="&lt;font size=&quot;1&quot; color=&quot;#6e5d57&quot;&gt;&lt;b style=&quot;font-size: 15px;&quot;&gt;TASTI MOSTRA&lt;br&gt;&lt;div style=&quot;text-align: justify;&quot;&gt;&lt;b style=&quot;background-color: initial;&quot;&gt;Cliccando sulle lenti di ingrandimento (tasto &#39;Mostra&#39;) sarà possibile vedere le password, infatti le password che stai inserendo sono di default oscurate&lt;/b&gt;&lt;/div&gt;&lt;/b&gt;&lt;/font&gt;" style="rounded=1;whiteSpace=wrap;html=1;strokeColor=#6e5d57;strokeWidth=5;fillColor=default;gradientColor=none;spacingTop=0;spacingLeft=0;spacingBottom=0;spacingRight=0;spacing=20;" parent="1" vertex="1">
          <mxGeometry x="900" y="490" width="330" height="140" as="geometry" />
        </mxCell>
        <mxCell id="klAf62AJUxECMU4ouiQL-7" value="" style="endArrow=classic;html=1;rounded=0;fontSize=15;fontColor=#6e5d57;strokeColor=#6E5D57;strokeWidth=3;exitX=0;exitY=0.75;exitDx=0;exitDy=0;" parent="1" source="klAf62AJUxECMU4ouiQL-5" edge="1">
          <mxGeometry width="50" height="50" relative="1" as="geometry">
            <mxPoint x="910" y="570" as="sourcePoint" />
            <mxPoint x="820" y="570" as="targetPoint" />
          </mxGeometry>
        </mxCell>
      </root>
    </mxGraphModel>
  </diagram>
</mxfile>
